<?xml version="1.0" encoding="UTF-8" standalone="no"?>
<!DOCTYPE svg PUBLIC "-//W3C//DTD SVG 1.1//EN" "http://www.w3.org/Graphics/SVG/1.1/DTD/svg11.dtd">
<svg width="100%" height="100%" viewBox="0 0 535 536" version="1.1" xmlns="http://www.w3.org/2000/svg" xmlns:xlink="http://www.w3.org/1999/xlink" xml:space="preserve" xmlns:serif="http://www.serif.com/" style="fill-rule:evenodd;clip-rule:evenodd;stroke-linejoin:round;stroke-miterlimit:2;">
    <g transform="matrix(1,0,0,1,-611.43,-2029.79)">
        <g transform="matrix(0.708034,0,0,0.709021,195.814,506.107)">
            <path d="M881.456,2297.84C871.948,2282.44 866.912,2264.69 866.912,2246.59C866.912,2192.73 910.64,2149 964.5,2149C1018.36,2149 1062.09,2192.73 1062.09,2246.59C1062.09,2264.69 1057.05,2282.44 1047.54,2297.84L986.626,2396.54C967.549,2427.45 972.214,2467.42 997.898,2493.1C1023.58,2518.79 1063.55,2523.45 1094.46,2504.37L1193.16,2443.46C1208.56,2433.95 1226.31,2428.91 1244.41,2428.91C1298.27,2428.91 1342,2472.64 1342,2526.5C1342,2580.36 1298.27,2624.09 1244.41,2624.09C1226.31,2624.09 1208.56,2619.05 1193.16,2609.54L1094.46,2548.63C1063.55,2529.55 1023.58,2534.21 997.898,2559.9C972.214,2585.58 967.549,2625.55 986.626,2656.46L1047.54,2755.16C1057.05,2770.56 1062.09,2788.31 1062.09,2806.41C1062.09,2860.27 1018.36,2904 964.5,2904C910.64,2904 866.912,2860.27 866.912,2806.41C866.912,2788.31 871.948,2770.56 881.456,2755.16L942.374,2656.46C961.451,2625.55 956.786,2585.58 931.102,2559.9C905.418,2534.21 865.451,2529.55 834.542,2548.63L735.844,2609.54C720.438,2619.05 702.692,2624.09 684.588,2624.09C630.728,2624.09 587,2580.36 587,2526.5C587,2472.64 630.728,2428.91 684.588,2428.91C702.692,2428.91 720.438,2433.95 735.844,2443.46L834.542,2504.37C865.451,2523.45 905.418,2518.79 931.102,2493.1C956.786,2467.42 961.451,2427.45 942.374,2396.54L881.456,2297.84Z" style="fill:#1b1a1c"/>
        </g>
    </g>
</svg>
